<?xml version="1.0" encoding="UTF-8"?>
<!-- Generated by Pixelmator Pro 3.5.11 -->
<svg width="512" height="512" viewBox="0 0 512 512" xmlns="http://www.w3.org/2000/svg">
    <g id="g1">
        <path id="-" fill="#dc2626" fill-rule="evenodd" stroke="#7c0606" stroke-width="5" d="M 382.796875 474.390625 L 370.71875 481.078125 L 359.671875 486.484375 L 348.4375 491.3125 L 336.703125 495.6875 L 324.890625 499.453125 L 303.59375 504.640625 L 290.984375 506.8125 L 278.375 508.328125 L 265.359375 509.234375 L 254 509.5 L 242.625 509.234375 L 229.609375 508.328125 L 217 506.8125 L 204.390625 504.640625 L 192.15625 501.90625 L 180.140625 498.578125 L 168.21875 494.625 L 156.8125 490.203125 L 142.640625 483.796875 L 130.40625 477.390625 L 119.984375 471.21875 L 109.6875 464.4375 L 99.921875 457.328125 L 90.359375 449.609375 L 81.25 441.53125 L 72.5625 433.046875 L 64.265625 424.140625 L 56.40625 414.84375 L 49.078125 405.265625 L 42.0625 395.140625 L 35.578125 384.765625 L 28.890625 372.703125 L 23.5 361.671875 L 18.625 350.328125 L 14.296875 338.703125 L 10.515625 326.828125 L 5.34375 305.59375 L 3.171875 292.96875 L 1.65625 280.25 L 0.765625 267.359375 L 0.5 256.0625 L 0.765625 244.625 L 1.65625 231.734375 L 3.171875 219.015625 L 5.34375 206.390625 L 10.515625 185.15625 L 14.296875 173.28125 L 18.625 161.65625 L 23.5 150.3125 L 28.890625 139.28125 L 35.578125 127.21875 L 42.0625 116.84375 L 49.078125 106.71875 L 56.40625 97.140625 L 64.265625 87.84375 L 72.5625 78.9375 L 81.25 70.453125 L 90.359375 62.375 L 99.921875 54.65625 L 109.6875 47.546875 L 119.984375 40.765625 L 130.40625 34.59375 L 142.640625 28.1875 L 156.8125 21.78125 L 168.21875 17.359375 L 180.15625 13.40625 L 192.15625 10.078125 L 204.390625 7.34375 L 217.015625 5.171875 L 229.609375 3.65625 L 242.625 2.75 L 254 2.5 L 265.359375 2.75 L 278.375 3.65625 L 290.96875 5.171875 L 303.59375 7.34375 L 315.828125 10.078125 L 327.828125 13.40625 L 339.765625 17.359375 L 351.171875 21.78125 L 365.34375 28.1875 L 377.578125 34.59375 L 388 40.765625 L 398.296875 47.546875 L 408.0625 54.65625 L 417.53125 62.296875 L 426.734375 70.453125 L 435.34375 78.859375 L 443.71875 87.84375 L 451.5 97.046875 L 458.90625 106.71875 L 465.859375 116.75 L 472.34375 127.109375 L 479.03125 139.15625 L 484.4375 150.203125 L 489.3125 161.546875 L 493.6875 173.28125 L 497.421875 184.984375 L 502.640625 206.390625 L 504.796875 218.890625 L 506.328125 231.609375 L 507.234375 244.515625 L 507.5 255.9375 L 507.234375 267.359375 L 506.34375 280.25 L 504.8125 292.96875 L 502.640625 305.59375 L 499.921875 317.765625 L 496.578125 329.828125 L 492.671875 341.640625 L 488.203125 353.171875 L 481.859375 367.21875 L 475.453125 379.46875 L 469.21875 390 L 462.4375 400.296875 L 455.328125 410.0625 L 447.6875 419.53125 L 439.53125 428.734375 L 431.125 437.34375 L 422.140625 445.71875 L 412.9375 453.5 L 403.265625 460.90625 L 393.234375 467.859375 Z"/>
        <path id="house-medical-solid-1" fill="#ffffff" stroke="none" d="M 390.138885 272.572144 C 399.054291 272.572144 406.920807 265.230042 406.920807 255.737793 C 407.445251 251.017853 405.347504 246.822388 401.152008 243.151337 L 267.263702 125.415619 C 264.117096 122.793457 259.9216 121.744568 256.250549 121.744568 C 252.579514 121.744568 248.384033 122.269012 244.712982 125.940063 L 110.195343 243.151337 C 106.524292 246.822388 104.950989 251.017853 104.950989 255.737793 C 104.950989 265.177612 112.293083 272.572144 121.732918 272.572144 L 138.514847 272.572144 L 138.514847 356.691589 C 138.514847 375.204132 153.566132 390.255432 172.078705 390.255432 L 340.160217 390.255432 C 358.777649 390.255432 373.828949 375.151703 373.72406 356.534241 L 373.356964 272.519714 L 390.138885 272.519714 Z M 239.206421 230.827118 C 239.206421 226.212097 242.982361 222.436157 247.597382 222.436157 L 264.379303 222.436157 C 268.994324 222.436157 272.770264 226.212097 272.770264 230.827118 L 272.770264 256 L 297.943176 256 C 302.558197 256 306.334137 259.77594 306.334137 264.390961 L 306.334137 281.172913 C 306.334137 285.787903 302.558197 289.563843 297.943176 289.563843 L 272.770264 289.563843 L 272.770264 314.736755 C 272.770264 319.351776 268.994324 323.127716 264.379303 323.127716 L 247.597382 323.127716 C 242.982361 323.127716 239.206421 319.351776 239.206421 314.736755 L 239.206421 289.563843 L 214.033524 289.563843 C 209.418488 289.563843 205.642563 285.787903 205.642563 281.172913 L 205.642563 264.390961 C 205.642563 259.77594 209.418488 256 214.033524 256 L 239.206421 256 L 239.206421 230.827118 Z"/>
    </g>
</svg>
