<?xml version="1.0" encoding="UTF-8"?>
<!-- Generated by Pixelmator Pro 3.5.11 -->
<svg width="512" height="512" viewBox="0 0 512 512" xmlns="http://www.w3.org/2000/svg">
    <g id="-">
        <path id="path1" fill="#ea580c" fill-rule="evenodd" stroke="#792c04" stroke-width="5" d="M 382.796875 474.390625 L 370.71875 481.078125 L 359.671875 486.484375 L 348.4375 491.3125 L 336.703125 495.6875 L 324.890625 499.453125 L 303.59375 504.640625 L 290.984375 506.8125 L 278.375 508.328125 L 265.359375 509.234375 L 254 509.5 L 242.625 509.234375 L 229.609375 508.328125 L 217 506.8125 L 204.390625 504.640625 L 192.15625 501.90625 L 180.140625 498.578125 L 168.21875 494.625 L 156.8125 490.203125 L 142.640625 483.796875 L 130.40625 477.390625 L 119.984375 471.21875 L 109.6875 464.4375 L 99.921875 457.328125 L 90.359375 449.609375 L 81.25 441.53125 L 72.5625 433.046875 L 64.265625 424.140625 L 56.40625 414.84375 L 49.078125 405.265625 L 42.0625 395.140625 L 35.578125 384.765625 L 28.890625 372.703125 L 23.5 361.671875 L 18.625 350.328125 L 14.296875 338.703125 L 10.515625 326.828125 L 5.34375 305.59375 L 3.171875 292.96875 L 1.65625 280.25 L 0.765625 267.359375 L 0.5 256.0625 L 0.765625 244.625 L 1.65625 231.734375 L 3.171875 219.015625 L 5.34375 206.390625 L 10.515625 185.15625 L 14.296875 173.28125 L 18.625 161.65625 L 23.5 150.3125 L 28.890625 139.28125 L 35.578125 127.21875 L 42.0625 116.84375 L 49.078125 106.71875 L 56.40625 97.140625 L 64.265625 87.84375 L 72.5625 78.9375 L 81.25 70.453125 L 90.359375 62.375 L 99.921875 54.65625 L 109.6875 47.546875 L 119.984375 40.765625 L 130.40625 34.59375 L 142.640625 28.1875 L 156.8125 21.78125 L 168.21875 17.359375 L 180.15625 13.40625 L 192.15625 10.078125 L 204.390625 7.34375 L 217.015625 5.171875 L 229.609375 3.65625 L 242.625 2.75 L 254 2.5 L 265.359375 2.75 L 278.375 3.65625 L 290.96875 5.171875 L 303.59375 7.34375 L 315.828125 10.078125 L 327.828125 13.40625 L 339.765625 17.359375 L 351.171875 21.78125 L 365.34375 28.1875 L 377.578125 34.59375 L 388 40.765625 L 398.296875 47.546875 L 408.0625 54.65625 L 417.53125 62.296875 L 426.734375 70.453125 L 435.34375 78.859375 L 443.71875 87.84375 L 451.5 97.046875 L 458.90625 106.71875 L 465.859375 116.75 L 472.34375 127.109375 L 479.03125 139.15625 L 484.4375 150.203125 L 489.3125 161.546875 L 493.6875 173.28125 L 497.421875 184.984375 L 502.640625 206.390625 L 504.796875 218.890625 L 506.328125 231.609375 L 507.234375 244.515625 L 507.5 255.9375 L 507.234375 267.359375 L 506.34375 280.25 L 504.8125 292.96875 L 502.640625 305.59375 L 499.921875 317.765625 L 496.578125 329.828125 L 492.671875 341.640625 L 488.203125 353.171875 L 481.859375 367.21875 L 475.453125 379.46875 L 469.21875 390 L 462.4375 400.296875 L 455.328125 410.0625 L 447.6875 419.53125 L 439.53125 428.734375 L 431.125 437.34375 L 422.140625 445.71875 L 412.9375 453.5 L 403.265625 460.90625 L 393.234375 467.859375 Z"/>
        <path id="utensils-solid" fill="#ffffff" stroke="none" d="M 356.285706 122.285706 C 347.928558 122.285706 289.428558 139 289.428558 214.214294 L 289.428558 272.714294 C 289.428558 291.152222 304.419189 306.142853 322.857147 306.142853 L 339.571442 306.142853 L 339.571442 373 C 339.571442 382.245117 347.040619 389.714294 356.285706 389.714294 C 365.530823 389.714294 373 382.245117 373 373 L 373 306.142853 L 373 247.642853 L 373 139 C 373 129.754913 365.530823 122.285706 356.285706 122.285706 Z M 172.428574 130.642853 C 172.428574 126.359802 169.242416 122.808044 164.959381 122.337952 C 160.676346 121.867859 156.863388 124.688385 155.923218 128.814728 L 140.096878 200.007141 C 139.365631 203.29776 139 206.640625 139 209.98349 C 139 233.958038 157.333481 253.649567 180.785721 255.791077 L 180.785721 373 C 180.785721 382.245117 188.254913 389.714294 197.5 389.714294 C 206.745087 389.714294 214.214279 382.245117 214.214279 373 L 214.214279 255.791077 C 237.666519 253.649567 256 233.958038 256 209.98349 C 256 206.640625 255.634384 203.29776 254.903122 200.007141 L 239.076782 128.814728 C 238.136612 124.636169 234.219193 121.867859 229.988388 122.337952 C 225.757599 122.808044 222.571426 126.359802 222.571426 130.642853 L 222.571426 200.738403 C 222.571426 203.558929 220.273224 205.857147 217.452682 205.857147 C 214.788849 205.857147 212.595093 203.820099 212.333923 201.15625 L 205.804916 129.911621 C 205.439285 125.576324 201.835266 122.285706 197.5 122.285706 C 193.164734 122.285706 189.560715 125.576324 189.195084 129.911621 L 182.718307 201.15625 C 182.457138 203.820099 180.263397 205.857147 177.599548 205.857147 C 174.779022 205.857147 172.480804 203.558929 172.480804 200.738403 L 172.480804 130.642853 Z M 197.656693 210.035706 L 197.5 210.035706 L 197.343307 210.035706 L 197.5 209.670074 L 197.656693 210.035706 Z"/>
    </g>
</svg>
